<?xml version="1.0" encoding="UTF-8"?><!DOCTYPE svg PUBLIC "-//W3C//DTD SVG 1.1//EN" "http://www.w3.org/Graphics/SVG/1.1/DTD/svg11.dtd"><svg xmlns="http://www.w3.org/2000/svg"><symbol id="alarm" viewBox="0 0 37 38"><path d="M10.7 9.7H5.5s-4.1.2-4.1 4.2v.1c-.8.5-1.4 1.5-1.4 2.7 0 1.1.6 2.1 1.4 2.7 0 .5.2 4.5 4 4.5 0 0 1.6.1 1.4 2.6v9.9S6.6 38 8.1 38c0 0 4.7-.7 2.3-5.4 1.7-1.8-.7-2.9.2-5.8 0 0 1.3-1.9 1.3-2.9l.1-12.7c.2 0 .4-1.5-1.3-1.5zM37 16.2c0-1.7-1-3.2-2.4-4V.6c0-1.5-1.3.2-1.3.2-6 9.4-18.5 8.7-18.5 8.7-1.5 0-1.2 1.3-1.2 1.3v10.9c0 1.3 1.3 1.3 1.3 1.3 14 0 18.8 8.8 18.8 8.8s1.1 1.4 1-.1V20.2c1.3-.8 2.3-2.3 2.3-4zm-16.2-5.5S29 9.5 33 3.4c0-.1-1.5 7.2-12.2 7.3zm15.3 6.8s.4-2-1.2-4.3c.1 0 2.2 1.2 1.2 4.3z" fill-rule="evenodd" clip-rule="evenodd" fill="#fff"/></symbol><symbol id="arrow" viewBox="0 0 31 31"><path d="M4.4 15.6l17.4 10-6.1-10.2 6.1-9.9L4.4 15.6zM15.5 0C6.9 0 0 7 0 15.5S6.9 31 15.5 31C24 31 31 24 31 15.5S24 0 15.5 0zm0 29.6c-7.8 0-14.1-6.3-14.1-14.1S7.7 1.4 15.5 1.4s14.1 6.3 14.1 14.1-6.3 14.1-14.1 14.1z" fill-rule="evenodd" clip-rule="evenodd" fill="#fc635e"/></symbol><symbol id="brain" viewBox="0 0 22 25"><path d="M8.1 5.4c-1.1 0-2 .9-2 2s.9 2 2 2 2-.9 2-2-.9-2-2-2zm4.4 8.3c-.7 0-1.3.6-1.3 1.3 0 .7.6 1.3 1.3 1.3.7 0 1.3-.6 1.3-1.3 0-.7-.6-1.3-1.3-1.3zm7.2-3C21.3 2.7 14.8-1 7.5.2.2 1.4.5 5.7.1 7.8-.8 13 4.7 18.9 4.7 18.9L4.4 25h8.8l.7-2.8s.4.6 2.7.8c2.3.2 2-2.6 2-2.6s1.5-.7 1.5-1.2-.9-1.1-.9-1.1 1 .2 1.3-.2c.3-.4-.5-1.9-.5-1.9s1.2 0 1.9-.8c.7-.7-2.2-3-2.2-4.5zM7.1 11.8s0-.5-.1-.8c-.2-.1-.4-.1-.6-.2-.2.2-.7.6-.7.6s-.1 0-.1.1l-.8-.1-1.4-1.5v-1s.5-.4.8-.6c-.1-.2-.1-.4-.1-.6-.3-.2-1-.5-1-.5l-.3-.8v-.1l.8-1.8.9-.2s.6.3.9.4c.2-.2.4-.3.6-.5 0-.3-.1-1-.1-1l.7-.7 2-.2.7.7s0 .5.1.8c.2.1.4.2.7.3.2-.2.7-.6.7-.6h.9L13 5.1V6s-.5.5-.8.7c0 .2.1.4.1.6.3.2 1 .6 1 .6l.2.9-1 1.8-.9.2s-.5-.3-.8-.5c-.1.1-.3.2-.5.3 0 .4.1 1 .1 1l-.7.7-2 .2-.6-.7zm8.2 5.2l-.6.2s-.3-.2-.5-.3c-.1.1-.2.1-.3.2 0 .2.1.7.1.7l-.4.4-1.3.1-.4-.4v-.5c-.1 0-.3-.1-.4-.1-.2.1-.5.4-.5.4h-.1-.5l-.8-1V16s.3-.3.5-.4c0-.1-.1-.3-.1-.4l-.6-.3-.2-.5v-.1l.5-1.2.6-.2s.4.2.5.2c.1-.1.2-.2.4-.2 0-.2-.1-.7-.1-.7l.4-.4 1.3-.1.4.4v.5c.2 0 .3.1.5.2l.4-.4h.6l.8 1v.6s-.3.3-.5.4v.4c.2.1.7.4.7.4l.2.6-.6 1.2z" fill-rule="evenodd" clip-rule="evenodd" fill="#fff"/></symbol><symbol id="facebook" viewBox="0 0 37 37"><path d="M18.5 0C8.3 0 0 8.3 0 18.5S8.3 37 18.5 37 37 28.7 37 18.5 28.7 0 18.5 0zm4.8 18.5h-3v11.1h-4.2V18.5h-2.8v-3.8h2.8v-2.3c0-3.1.8-5 4.5-5h3.1v3.8h-1.9c-1.4 0-1.5.5-1.5 1.5v1.9h3.4l-.4 3.9z" fill-rule="evenodd" clip-rule="evenodd" fill="#565656"/></symbol><symbol id="graph" viewBox="0 0 23 21"><path d="M21.6 0H1.4C.6 0 0 .6 0 1.4v14.7c0 .8.6 1.4 1.4 1.4h20.2c.8 0 1.4-.6 1.4-1.4V1.4c0-.8-.6-1.4-1.4-1.4zm-.3 15.1H1.7V2h19.5v13.1zM8.9 18.3L6.3 21h10.5l-2.6-2.7H8.9zm-4.2-5.8c.5 0 .9-.4.9-1 0-.1 0-.2-.1-.3 1.2-1 3.3-2.7 4.3-3.5.2.2.4.3.6.3.2 0 .3-.1.5-.1.6.5 1.7 1.4 2.4 2.1v.2c0 .5.4 1 .9 1s.9-.4.9-1c0-.1 0-.2-.1-.3l2.4-2.2c.1.1.3.1.4.1.5 0 .9-.4.9-1 0-.5-.4-1-.9-1s-.8.5-.8 1c0 .1 0 .2.1.4-.7.6-1.7 1.6-2.4 2.2-.1-.1-.3-.2-.5-.2s-.4.1-.6.2c-.6-.5-1.6-1.4-2.3-2 0-.1.1-.2.1-.3 0-.5-.4-1-.9-1s-.9.4-.9 1c0 .1 0 .2.1.3l-4.3 3.4c-.2-.1-.3-.2-.5-.2-.5 0-.9.4-.9 1-.2.5.2.9.7.9z" fill-rule="evenodd" clip-rule="evenodd" fill="#fff"/></symbol><symbol id="idea" viewBox="0 0 19 25"><path d="M1.6 9.4c0-.3.1-.5.1-.8H0v1.6h1.7c-.1-.3-.1-.6-.1-.8zm-.7-4l1.4.8c.2-.5.5-.9.8-1.4L1.7 4 .9 5.4zm5.4-3.1L5.4.9l-1.3.7.8 1.4c.4-.3.9-.5 1.4-.7zm4-.7V0H8.7v1.6c.3 0 .5-.1.8-.1.3.1.5.1.8.1zm4.6 0L13.5.8l-.8 1.4c.5.2.9.5 1.4.8l.8-1.4zM.9 13.4l.8 1.4L3 14c-.2-.5-.4-1-.6-1.4l-1.5.8zM16 14l1.3.7.8-1.4-1.4-.8c-.2.6-.4 1-.7 1.5zm2.1-8.6L17.3 4l-1.4.8c.3.4.6.9.8 1.4l1.4-.8zm-.8 3.2c0 .3.1.5.1.8 0 .3-.1.5-.1.8H19V8.6h-1.7zM9.5 3.1C6 3.1 3.2 5.9 3.2 9.4c0 3.1 3.2 6.3 3.2 9.4h6.3c0-3.2 3.2-6.3 3.2-9.4-.1-3.5-2.9-6.3-6.4-6.3zm2.4 18.8H7.1c-.4 0-.8.3-.8.8 0 .4.4.8.8.8h.1c.4.8 1.3 1.5 2.3 1.5s1.9-.7 2.2-1.6h.1c.4 0 .8-.3.8-.8.1-.4-.3-.7-.7-.7zm0-2.4H7.1c-.4 0-.8.3-.8.8s.4.8.8.8h4.8c.4 0 .8-.3.8-.8s-.4-.8-.8-.8z" fill-rule="evenodd" clip-rule="evenodd" fill="#fff"/></symbol><symbol id="kiwi" viewBox="0 65.326 612 502.174"><ellipse fill="#C6C6C6" cx="283.5" cy="487.5" rx="259" ry="80"/><path d="M210.333 65.331c-105.966.774-222.682 85.306-209.277 211.118 4.303 40.393 18.533 63.704 52.171 79.03 36.307 16.544 57.022 54.556 50.406 112.954-9.935 4.88-17.405 11.031-19.132 20.015 7.531-.17 14.943-.312 22.59 4.341 20.333 12.375 31.296 27.363 42.979 51.72 1.714 3.572 8.192 2.849 8.312-3.078.17-8.467-1.856-17.454-5.226-26.933-2.955-8.313 3.059-7.985 6.917-6.106 6.399 3.115 16.334 9.43 30.39 13.098 5.392 1.407 5.995-3.877 5.224-6.991-1.864-7.522-11.009-10.862-24.519-19.229-4.82-2.984-.927-9.736 5.168-8.351l20.234 2.415c3.359.763 4.555-6.114.882-7.875-14.198-6.804-28.897-10.098-53.864-7.799-11.617-29.265-29.811-61.617-15.674-81.681 12.639-17.938 31.216-20.74 39.147 43.489-5.002 3.107-11.215 5.031-11.332 13.024 7.201-2.845 11.207-1.399 14.791 0 17.912 6.998 35.462 21.826 52.982 37.309 3.739 3.303 8.413-1.718 6.991-6.034-2.138-6.494-8.053-10.659-14.791-20.016-3.239-4.495 5.03-7.045 10.886-6.876 13.849.396 22.886 8.268 35.177 11.218 4.483 1.076 9.741-1.964 6.917-6.917-3.472-6.085-13.015-9.124-19.18-13.413-4.357-3.029-3.025-7.132 2.697-6.602 3.905.361 8.478 2.271 13.908 1.767 9.946-.925 7.717-7.169-.883-9.566-19.036-5.304-39.891-6.311-61.665-5.225-43.837-8.358-31.554-84.887 0-90.363 29.571-5.132 62.966-13.339 99.928-32.156 32.668-5.429 64.835-12.446 92.939-33.85 48.106-14.469 111.903 16.113 204.241 149.695 3.926 5.681 15.819 9.94 9.524-6.351-15.893-41.125-68.176-93.328-92.13-132.085-24.581-39.774-14.34-61.243-39.957-91.247-21.326-24.978-47.502-25.803-77.339-17.365-23.461 6.634-39.234-7.117-52.98-31.273-29.365-51.617-81.947-74.215-137.452-73.811zM445.731 203.01c6.12 0 11.112 4.919 11.112 11.038 0 6.119-4.994 11.111-11.112 11.111s-11.038-4.994-11.038-11.111a11.01 11.01 0 0 1 11.038-11.038z"/></symbol><symbol id="like" viewBox="0 0 23 21"><path d="M23 8.1c-.2-1.1-1.2-2-2.3-2h-5.2c-.2 0-.3-.1-.2-.3.6-.8.9-1.9.7-3.7-.1-1.5-.4-2.1-.9-2.1-.7 0-1.8 1.6-2.9 3.1-1.4 2-4.1 3.7-5 4.2-.2.2-.5.3-.7.4l-2.7 1c-.3.1-.4.3-.4.6v8.3c0 .2.2.5.4.6l1.2.7c.2.1.5.2.8.2 1.2.1 2 .6 2.7 1.1.2.1.5.3.7.5.4.3.8.4 1.3.4h8.2c1.2 0 2.3-.9 2.6-2 0-.2.1-.6.1-.8l1.7-9.2c-.1-.4-.1-.8-.1-1zM2.2 7.9H.7c-.4 0-.7.3-.7.7v9.7c0 .4.3.7.7.7h1.5c.4 0 .7-.3.7-.7V8.6c-.1-.4-.4-.7-.7-.7z" fill-rule="evenodd" clip-rule="evenodd" fill="#fff"/></symbol><symbol id="linkedin" viewBox="0 0 37 37"><path d="M18.5 0C8.3 0 0 8.3 0 18.5S8.3 37 18.5 37 37 28.7 37 18.5 28.7 0 18.5 0zm-4.6 27.5H9.2V11.3h4.6v16.2zm-2.2-17.2c-1.2 0-2.2-1-2.2-2.2 0-1.2 1-2.2 2.2-2.2 1.2 0 2.2 1 2.2 2.2 0 1.2-1 2.2-2.2 2.2zm18.4 17.2h-4.6v-10c0-1.2-.3-2-1.8-2-2.4 0-2.8 2-2.8 2v10h-4.6V11.3h4.6v1.5c.7-.5 2.3-1.5 4.6-1.5 1.5 0 4.6.9 4.6 6.3v9.9z" fill-rule="evenodd" clip-rule="evenodd" fill="#565656"/></symbol><symbol id="monitor" viewBox="0 0 41 38"><path d="M25.9 36.9c-.7-.5-.8-1.3-.8-1.3l-.2-1.6h-8.3l-.3 1.7s-.1.8-.8 1.3c-.7.5-1.2.9-.7 1 .5.1 5.5 0 5.9 0 .4 0 5.3.1 5.9 0 .5-.1 0-.5-.7-1.1zM14.6 20.8c-.7 2.2-1 2.8-3.2 2.8s3.1 1.2 6.8-.3c3.7-1.5-2.3-6-3.6-2.5zm4.1-1.2c1.1.9.8.9 1.9-.5L34 4.6c1.1-1.4 1.2-3.2.1-4.1-1.1-.9-2.9-.4-4 1L18.8 17.6c-1.2 1.4-1.2 1.1-.1 2zM32.9.6c-1.6.9-1.7 1.7-1.7 1.7s-.2-.1-.7-.5C31.3.4 32.9.6 32.9.6zm6.3 5.3h-5L32 8.3h6.4v19.3H3.1V8.3h20.5l1.7-2.4h-23c-.9 0-1.6.7-1.6 1.6v23.3c0 .9.7 1.6 1.6 1.6h36.9c.9 0 1.6-.7 1.6-1.6V7.5c0-.9-.7-1.6-1.6-1.6z" fill-rule="evenodd" clip-rule="evenodd" fill="#fff"/></symbol><symbol id="mouse" viewBox="0 0 47 32"><path d="M31.3 0H11.7C3.7 0 0 8.1 0 15.6 0 23.7 4 32 11.7 32h19.6C40 32 47 24.8 47 16S40 0 31.3 0zM19 29h-7.3C6 29 3 22.1 3 15.6 3 9.3 5.7 3 11.7 3h7.4c4.1 11 1 22.6-.1 26zm12.3 0h-9.2c.8-2.7 2-7.8 2-13.7 0-3.8-.5-8-1.9-12.2h9.1C38.3 3 44 8.8 44 16s-5.7 13-12.7 13zM17.1 14.3H6.4c-.8 0-1.5.7-1.5 1.5s.7 1.5 1.5 1.5h10.7c.8 0 1.5-.7 1.5-1.5s-.7-1.5-1.5-1.5z" fill-rule="evenodd" clip-rule="evenodd" fill="#fff"/></symbol><symbol id="quote" viewBox="0 0 34 29"><path d="M7.3 13.2c0-4.3 0-5.1 3.6-5.1V0C2.4 0 0 5.7 0 15.7V29h15.8V15.7H7.3v-2.5zm18.2 2.5v-2.5c0-4.3 0-5.1 3.6-5.1V0c-8.5 0-10.9 5.7-10.9 15.7V29H34V15.7h-8.5z" fill-rule="evenodd" clip-rule="evenodd" fill="#fff"/></symbol><symbol id="radio" viewBox="0 0 37 37"><path d="M33.1 0H3.9C1.8 0 0 1.7 0 3.9v29.2C0 35.2 1.8 37 3.9 37h29.2c2.1 0 3.9-1.8 3.9-3.9V3.9C37 1.7 35.2 0 33.1 0zM4.2 5.3h28.5v19.5H4.2V5.3zm30.1 26.5H14.4c-.3 1.5-1.7 2.6-3.2 2.6-1.6 0-2.9-1.1-3.2-2.6H2.7v-1.5h5.2c.3-1.5 1.7-2.6 3.2-2.6 1.6 0 2.9 1.1 3.2 2.6h19.9v1.5zM21.9 21.5h4V8.1h-4v13.4zm-11 0h4v-8.2h-4v8.2zm5.5 0h4V11h-4v10.5z" fill-rule="evenodd" clip-rule="evenodd" fill="#fff"/></symbol><symbol id="rocket" viewBox="0 0 34 40"><path d="M33 1.5c.2-.3.3-.5.2-.6h-.1s0-.3.1-.5c.1-.3-.1-.4-.4-.3-.3.1-.6.1-.6.1l-.1-.1c-.1-.1-.3.1-.5.3 0 0 0 .1-.1.1 0 0-.8.1-1.7.3-1.6.3-4.1 1-6.8 2.7-4.4 2.7-7.2 6.4-8.5 8.4-.5.8-1.6 1.3-2.5 1.3C4.6 13 1.5 18.1.3 20.8c-.4.8.2 1.5 1.1 1.5C17.7 22 19.2 32 19.1 36c0 .9.6 1.4 1.4.9 5.9-3.5 5.5-10.2 5-13.2-.2-.9.1-2.1.7-2.8 2.4-2.8 3.9-5.5 5-8 .3-.8.8-2.2 1-3 .1-.4.2-.9.3-1.5 0-.1 0-.2.1-.3 0-.1.1-.3.1-.5.3-1.7.4-3.1.3-4.2 0-.9-.1-1.7-.1-1.7.1-.1.1-.1.1-.2zm-8.2 14.3c-.1.2-.2.4-.4.5-1 1.1-2.7 1.4-4.1.6-1.6-.9-2.1-2.8-1.2-4.3.1-.2.2-.4.4-.5 1-1.1 2.7-1.4 4.1-.6 1.5.8 2.1 2.8 1.2 4.3zM14.6 30.6c-3.1 1.9-4.7 4.9-5.5 6.7-.4.8.2 1.3 1 .8 2.9-1.7 4.6-4.9 5.4-6.8.3-.7-.1-1.2-.9-.7zM11.1 28c-4.7 2.8-7 7.5-7.9 10-.3.9.2 1.3 1 .9 4.5-2.4 6.9-7.5 7.8-10.1.4-.9-.1-1.3-.9-.8zm-2.5-1.9c.4-.8-.1-1.3-.9-.8C4.6 27.2 3 30.2 2.2 32c-.4.8.2 1.3 1 .8 2.9-1.6 4.6-4.8 5.4-6.7z" fill-rule="evenodd" clip-rule="evenodd" fill="#fff"/></symbol><symbol id="twitter" viewBox="0 0 37 37"><path d="M18.5 0C8.3 0 0 8.3 0 18.5S8.3 37 18.5 37 37 28.7 37 18.5 28.7 0 18.5 0zM26 15.2v.5C26 20.4 22.4 26 15.7 26c-2.1 0-4-.6-5.6-1.6.3 0 .6.1.9.1 1.7 0 3.3-.6 4.5-1.6-1.6 0-2.9-1.1-3.4-2.5.2 0 .5.1.7.1.3 0 .7 0 1-.1-1.7-.3-2.9-1.8-2.9-3.6.5.3 1.1.4 1.6.5-1-.7-1.6-1.8-1.6-3 0-.7.2-1.3.5-1.8 1.8 2.2 4.5 3.7 7.5 3.8-.1-.3-.1-.5-.1-.8 0-2 1.6-3.6 3.6-3.6 1 0 2 .4 2.7 1.2.8-.2 1.6-.5 2.3-.9-.3.9-.8 1.6-1.6 2 .7-.1 1.4-.3 2.1-.6-.5.4-1.2 1-1.9 1.6z" fill-rule="evenodd" clip-rule="evenodd" fill="#565656"/></symbol></svg>