<?xml version="1.0" encoding="utf-8"?>
<!-- Generator: Adobe Illustrator 21.1.0, SVG Export Plug-In . SVG Version: 6.00 Build 0)  -->
<svg version="1.1" id="Forma_1_1_" xmlns="http://www.w3.org/2000/svg" xmlns:xlink="http://www.w3.org/1999/xlink" x="0px" y="0px"
	 width="37px" height="38px" viewBox="0 0 37 38" style="enable-background:new 0 0 37 38;" xml:space="preserve">
<g id="Forma_1">
	<g>
		<path style="fill-rule:evenodd;clip-rule:evenodd;fill:#FFFFFF;" d="M10.7,9.7l-5.2,0c0,0-4.1,0.2-4.1,4.2v0.1
			C0.6,14.5,0,15.5,0,16.7c0,1.1,0.6,2.1,1.4,2.7c0,0.5,0.2,4.5,4,4.5c0,0,1.6,0.1,1.4,2.6l0,9.9c0,0-0.2,1.6,1.3,1.6
			c0,0,4.7-0.7,2.3-5.4c1.7-1.8-0.7-2.9,0.2-5.8c0,0,1.3-1.9,1.3-2.9l0.1-12.7C12.2,11.2,12.4,9.7,10.7,9.7z M37,16.2
			c0-1.7-1-3.2-2.4-4l0-11.6c0-1.5-1.3,0.2-1.3,0.2c-6,9.4-18.5,8.7-18.5,8.7c-1.5,0-1.2,1.3-1.2,1.3l0,10.9c0,1.3,1.3,1.3,1.3,1.3
			c14,0,18.8,8.8,18.8,8.8s1.1,1.4,1-0.1l0-11.5C36,19.4,37,17.9,37,16.2z M20.8,10.7c0,0,8.2-1.2,12.2-7.3
			C33,3.3,31.5,10.6,20.8,10.7z M36.1,17.5c0,0,0.4-2-1.2-4.3C35,13.2,37.1,14.4,36.1,17.5z"/>
	</g>
</g>
</svg>
