<?xml version="1.0" encoding="utf-8"?>
<!-- Generator: Adobe Illustrator 21.1.0, SVG Export Plug-In . SVG Version: 6.00 Build 0)  -->
<svg version="1.1" id="arrow_1_" xmlns="http://www.w3.org/2000/svg" xmlns:xlink="http://www.w3.org/1999/xlink" x="0px" y="0px"
	 width="31px" height="31px" viewBox="0 0 31 31" style="enable-background:new 0 0 31 31;" xml:space="preserve">
<g id="arrow">
	<g>
		<path style="fill-rule:evenodd;clip-rule:evenodd;fill:#FC635E;" d="M4.4,15.6l17.4,10l-6.1-10.2l6.1-9.9L4.4,15.6z M15.5,0
			C6.9,0,0,7,0,15.5C0,24,6.9,31,15.5,31C24,31,31,24,31,15.5C31,7,24,0,15.5,0z M15.5,29.6c-7.8,0-14.1-6.3-14.1-14.1
			c0-7.8,6.3-14.1,14.1-14.1c7.8,0,14.1,6.3,14.1,14.1C29.6,23.3,23.3,29.6,15.5,29.6z"/>
	</g>
</g>
</svg>
