<?xml version="1.0" encoding="utf-8"?>
<!-- Generator: Adobe Illustrator 21.1.0, SVG Export Plug-In . SVG Version: 6.00 Build 0)  -->
<svg version="1.1" id="brain_1_" xmlns="http://www.w3.org/2000/svg" xmlns:xlink="http://www.w3.org/1999/xlink" x="0px" y="0px"
	 width="22px" height="25px" viewBox="0 0 22 25" style="enable-background:new 0 0 22 25;" xml:space="preserve">
<g id="brain">
	<g>
		<path style="fill-rule:evenodd;clip-rule:evenodd;fill:#FFFFFF;" d="M8.1,5.4c-1.1,0-2,0.9-2,2c0,1.1,0.9,2,2,2c1.1,0,2-0.9,2-2
			C10.1,6.3,9.2,5.4,8.1,5.4z M12.5,13.7c-0.7,0-1.3,0.6-1.3,1.3c0,0.7,0.6,1.3,1.3,1.3c0.7,0,1.3-0.6,1.3-1.3
			C13.8,14.3,13.2,13.7,12.5,13.7z M19.7,10.7C21.3,2.7,14.8-1,7.5,0.2c-7.3,1.2-7,5.5-7.4,7.6c-0.9,5.2,4.6,11.1,4.6,11.1L4.4,25
			h8.8l0.7-2.8c0,0,0.4,0.6,2.7,0.8c2.3,0.2,2-2.6,2-2.6s1.5-0.7,1.5-1.2c0-0.5-0.9-1.1-0.9-1.1s1,0.2,1.3-0.2
			C20.8,17.5,20,16,20,16s1.2,0,1.9-0.8C22.6,14.5,19.7,12.2,19.7,10.7z M7.1,11.8c0,0,0-0.5-0.1-0.8c-0.2-0.1-0.4-0.1-0.6-0.2
			c-0.2,0.2-0.7,0.6-0.7,0.6s-0.1,0-0.1,0.1c0,0-0.8-0.1-0.8-0.1L3.4,9.9V8.9c0,0,0.5-0.4,0.8-0.6C4.1,8.1,4.1,7.9,4.1,7.7
			c-0.3-0.2-1-0.5-1-0.5L2.8,6.4l0-0.1l0.8-1.8l0.9-0.2c0,0,0.6,0.3,0.9,0.4C5.6,4.5,5.8,4.4,6,4.2c0-0.3-0.1-1-0.1-1l0.7-0.7l2-0.2
			l0.7,0.7c0,0,0,0.5,0.1,0.8C9.6,3.9,9.8,4,10.1,4.1c0.2-0.2,0.7-0.6,0.7-0.6h0.9L13,5.1V6c0,0-0.5,0.5-0.8,0.7
			c0,0.2,0.1,0.4,0.1,0.6c0.3,0.2,1,0.6,1,0.6l0.2,0.9l-1,1.8l-0.9,0.2c0,0-0.5-0.3-0.8-0.5c-0.1,0.1-0.3,0.2-0.5,0.3
			c0,0.4,0.1,1,0.1,1l-0.7,0.7l-2,0.2L7.1,11.8z M15.3,17l-0.6,0.2c0,0-0.3-0.2-0.5-0.3c-0.1,0.1-0.2,0.1-0.3,0.2
			c0,0.2,0.1,0.7,0.1,0.7l-0.4,0.4l-1.3,0.1l-0.4-0.4c0,0,0-0.3,0-0.5c-0.1,0-0.3-0.1-0.4-0.1c-0.2,0.1-0.5,0.4-0.5,0.4
			s-0.1,0-0.1,0c0,0-0.5,0-0.5,0l-0.8-1V16c0,0,0.3-0.3,0.5-0.4c0-0.1-0.1-0.3-0.1-0.4c-0.2-0.1-0.6-0.3-0.6-0.3l-0.2-0.5l0-0.1
			l0.5-1.2l0.6-0.2c0,0,0.4,0.2,0.5,0.2c0.1-0.1,0.2-0.2,0.4-0.2c0-0.2-0.1-0.7-0.1-0.7l0.4-0.4l1.3-0.1l0.4,0.4c0,0,0,0.3,0,0.5
			c0.2,0,0.3,0.1,0.5,0.2c0.1-0.1,0.4-0.4,0.4-0.4h0.6l0.8,1v0.6c0,0-0.3,0.3-0.5,0.4c0,0.1,0,0.2,0,0.4c0.2,0.1,0.7,0.4,0.7,0.4
			l0.2,0.6L15.3,17z"/>
	</g>
</g>
</svg>
