<?xml version="1.0" encoding="utf-8"?>
<!-- Generator: Adobe Illustrator 21.1.0, SVG Export Plug-In . SVG Version: 6.00 Build 0)  -->
<svg version="1.1" id="Forma_1_1_" xmlns="http://www.w3.org/2000/svg" xmlns:xlink="http://www.w3.org/1999/xlink" x="0px" y="0px"
	 width="37px" height="37px" viewBox="0 0 37 37" style="enable-background:new 0 0 37 37;" xml:space="preserve">
<g id="Forma_1">
	<g>
		<path style="fill-rule:evenodd;clip-rule:evenodd;fill:#565656;" d="M18.5,0C8.3,0,0,8.3,0,18.5S8.3,37,18.5,37
			C28.7,37,37,28.7,37,18.5C37,8.3,28.7,0,18.5,0z M23.3,18.5l-3,0l0,11.1h-4.2V18.5h-2.8v-3.8l2.8,0l0-2.3c0-3.1,0.8-5,4.5-5h3.1
			v3.8h-1.9c-1.4,0-1.5,0.5-1.5,1.5l0,1.9h3.4L23.3,18.5z"/>
	</g>
</g>
</svg>
