<?xml version="1.0" encoding="utf-8"?>
<!-- Generator: Adobe Illustrator 21.1.0, SVG Export Plug-In . SVG Version: 6.00 Build 0)  -->
<svg version="1.1" id="graph_1_" xmlns="http://www.w3.org/2000/svg" xmlns:xlink="http://www.w3.org/1999/xlink" x="0px" y="0px"
	 width="23px" height="21px" viewBox="0 0 23 21" style="enable-background:new 0 0 23 21;" xml:space="preserve">
<g id="graph">
	<g>
		<path style="fill-rule:evenodd;clip-rule:evenodd;fill:#FFFFFF;" d="M21.6,0H1.4C0.6,0,0,0.6,0,1.4v14.7c0,0.8,0.6,1.4,1.4,1.4
			h20.2c0.8,0,1.4-0.6,1.4-1.4V1.4C23,0.6,22.4,0,21.6,0z M21.3,15.1H1.7V2h19.5V15.1z M8.9,18.3L6.3,21h10.5l-2.6-2.7H8.9z
			 M4.7,12.5c0.5,0,0.9-0.4,0.9-1c0-0.1,0-0.2-0.1-0.3c1.2-1,3.3-2.7,4.3-3.5C10,7.9,10.2,8,10.4,8c0.2,0,0.3-0.1,0.5-0.1
			c0.6,0.5,1.7,1.4,2.4,2.1c0,0.1,0,0.1,0,0.2c0,0.5,0.4,1,0.9,1c0.5,0,0.9-0.4,0.9-1c0-0.1,0-0.2-0.1-0.3l2.4-2.2
			c0.1,0.1,0.3,0.1,0.4,0.1c0.5,0,0.9-0.4,0.9-1c0-0.5-0.4-1-0.9-1S17,6.3,17,6.8c0,0.1,0,0.2,0.1,0.4c-0.7,0.6-1.7,1.6-2.4,2.2
			c-0.1-0.1-0.3-0.2-0.5-0.2c-0.2,0-0.4,0.1-0.6,0.2C13,8.9,12,8,11.3,7.4c0-0.1,0.1-0.2,0.1-0.3c0-0.5-0.4-1-0.9-1s-0.9,0.4-0.9,1
			c0,0.1,0,0.2,0.1,0.3l-4.3,3.4c-0.2-0.1-0.3-0.2-0.5-0.2c-0.5,0-0.9,0.4-0.9,1C3.8,12.1,4.2,12.5,4.7,12.5z"/>
	</g>
</g>
</svg>
