<?xml version="1.0" encoding="utf-8"?>
<!-- Generator: Adobe Illustrator 21.1.0, SVG Export Plug-In . SVG Version: 6.00 Build 0)  -->
<svg version="1.1" id="idea_1_" xmlns="http://www.w3.org/2000/svg" xmlns:xlink="http://www.w3.org/1999/xlink" x="0px" y="0px"
	 width="19px" height="25px" viewBox="0 0 19 25" style="enable-background:new 0 0 19 25;" xml:space="preserve">
<g id="idea">
	<g>
		<path style="fill-rule:evenodd;clip-rule:evenodd;fill:#FFFFFF;" d="M1.6,9.4c0-0.3,0.1-0.5,0.1-0.8H0v1.6h1.7
			C1.6,9.9,1.6,9.6,1.6,9.4z M0.9,5.4l1.4,0.8c0.2-0.5,0.5-0.9,0.8-1.4L1.7,4L0.9,5.4z M6.3,2.3L5.4,0.9L4.1,1.6l0.8,1.4
			C5.3,2.7,5.8,2.5,6.3,2.3z M10.3,1.6V0H8.7v1.6c0.3,0,0.5-0.1,0.8-0.1C9.8,1.6,10,1.6,10.3,1.6z M14.9,1.6l-1.4-0.8l-0.8,1.4
			c0.5,0.2,0.9,0.5,1.4,0.8L14.9,1.6z M0.9,13.4l0.8,1.4L3,14c-0.2-0.5-0.4-1-0.6-1.4L0.9,13.4z M16,14l1.3,0.7l0.8-1.4l-1.4-0.8
			C16.5,13.1,16.3,13.5,16,14z M18.1,5.4L17.3,4l-1.4,0.8c0.3,0.4,0.6,0.9,0.8,1.4L18.1,5.4z M17.3,8.6c0,0.3,0.1,0.5,0.1,0.8
			c0,0.3-0.1,0.5-0.1,0.8H19V8.6H17.3z M9.5,3.1C6,3.1,3.2,5.9,3.2,9.4c0,3.1,3.2,6.3,3.2,9.4h6.3c0-3.2,3.2-6.3,3.2-9.4
			C15.8,5.9,13,3.1,9.5,3.1z M11.9,21.9H7.1c-0.4,0-0.8,0.3-0.8,0.8c0,0.4,0.4,0.8,0.8,0.8h0.1C7.6,24.3,8.5,25,9.5,25
			s1.9-0.7,2.2-1.6h0.1c0.4,0,0.8-0.3,0.8-0.8C12.7,22.2,12.3,21.9,11.9,21.9z M11.9,19.5H7.1c-0.4,0-0.8,0.3-0.8,0.8
			s0.4,0.8,0.8,0.8h4.8c0.4,0,0.8-0.3,0.8-0.8S12.3,19.5,11.9,19.5z"/>
	</g>
</g>
</svg>
