<?xml version="1.0" encoding="utf-8"?>
<!-- Generator: Adobe Illustrator 21.1.0, SVG Export Plug-In . SVG Version: 6.00 Build 0)  -->
<svg version="1.1" id="like_1_" xmlns="http://www.w3.org/2000/svg" xmlns:xlink="http://www.w3.org/1999/xlink" x="0px" y="0px"
	 width="23px" height="21px" viewBox="0 0 23 21" style="enable-background:new 0 0 23 21;" xml:space="preserve">
<g id="like">
	<g>
		<path style="fill-rule:evenodd;clip-rule:evenodd;fill:#FFFFFF;" d="M23,8.1c-0.2-1.1-1.2-2-2.3-2h-5.2c-0.2,0-0.3-0.1-0.2-0.3
			C15.9,5,16.2,3.9,16,2.1C15.9,0.6,15.6,0,15.1,0c-0.7,0-1.8,1.6-2.9,3.1c-1.4,2-4.1,3.7-5,4.2C7,7.5,6.7,7.6,6.5,7.7l-2.7,1
			C3.5,8.8,3.4,9,3.4,9.3v8.3c0,0.2,0.2,0.5,0.4,0.6l1.2,0.7c0.2,0.1,0.5,0.2,0.8,0.2c1.2,0.1,2,0.6,2.7,1.1
			c0.2,0.1,0.5,0.3,0.7,0.5c0.4,0.3,0.8,0.4,1.3,0.4h8.2c1.2,0,2.3-0.9,2.6-2c0-0.2,0.1-0.6,0.1-0.8l1.7-9.2C23,8.7,23,8.3,23,8.1z
			 M2.2,7.9H0.7C0.3,7.9,0,8.2,0,8.6v9.7C0,18.7,0.3,19,0.7,19h1.5c0.4,0,0.7-0.3,0.7-0.7V8.6C2.8,8.2,2.5,7.9,2.2,7.9z"/>
	</g>
</g>
</svg>
