<?xml version="1.0" encoding="utf-8"?>
<!-- Generator: Adobe Illustrator 21.1.0, SVG Export Plug-In . SVG Version: 6.00 Build 0)  -->
<svg version="1.1" id="Forma_1_1_" xmlns="http://www.w3.org/2000/svg" xmlns:xlink="http://www.w3.org/1999/xlink" x="0px" y="0px"
	 width="37px" height="37px" viewBox="0 0 37 37" style="enable-background:new 0 0 37 37;" xml:space="preserve">
<g id="Forma_1">
	<g>
		<path style="fill-rule:evenodd;clip-rule:evenodd;fill:#565656;" d="M18.5,0C8.3,0,0,8.3,0,18.5S8.3,37,18.5,37
			C28.7,37,37,28.7,37,18.5C37,8.3,28.7,0,18.5,0z M13.9,27.5H9.2V11.3h4.6V27.5z M11.7,10.3c-1.2,0-2.2-1-2.2-2.2
			c0-1.2,1-2.2,2.2-2.2c1.2,0,2.2,1,2.2,2.2C13.9,9.3,12.9,10.3,11.7,10.3z M30.1,27.5h-4.6v-10c0-1.2-0.3-2-1.8-2
			c-2.4,0-2.8,2-2.8,2v10h-4.6V11.3h4.6v1.5c0.7-0.5,2.3-1.5,4.6-1.5c1.5,0,4.6,0.9,4.6,6.3V27.5z"/>
	</g>
</g>
</svg>
