<?xml version="1.0" encoding="utf-8"?>
<!-- Generator: Adobe Illustrator 21.1.0, SVG Export Plug-In . SVG Version: 6.00 Build 0)  -->
<svg version="1.1" id="Forma_1_1_" xmlns="http://www.w3.org/2000/svg" xmlns:xlink="http://www.w3.org/1999/xlink" x="0px" y="0px"
	 width="41px" height="38px" viewBox="0 0 41 38" style="enable-background:new 0 0 41 38;" xml:space="preserve">
<g id="Forma_1">
	<g>
		<path style="fill-rule:evenodd;clip-rule:evenodd;fill:#FFFFFF;" d="M25.9,36.9c-0.7-0.5-0.8-1.3-0.8-1.3L24.9,34h-8.3l-0.3,1.7
			c0,0-0.1,0.8-0.8,1.3c-0.7,0.5-1.2,0.9-0.7,1c0.5,0.1,5.5,0,5.9,0c0.4,0,5.3,0.1,5.9,0C27.1,37.9,26.6,37.5,25.9,36.9z M14.6,20.8
			c-0.7,2.2-1,2.8-3.2,2.8c-2.2,0,3.1,1.2,6.8-0.3C21.9,21.8,15.9,17.3,14.6,20.8z M18.7,19.6c1.1,0.9,0.8,0.9,1.9-0.5L34,4.6
			c1.1-1.4,1.2-3.2,0.1-4.1c-1.1-0.9-2.9-0.4-4,1L18.8,17.6C17.6,19,17.6,18.7,18.7,19.6z M32.9,0.6c-1.6,0.9-1.7,1.7-1.7,1.7
			S31,2.2,30.5,1.8C31.3,0.4,32.9,0.6,32.9,0.6z M39.2,5.9h-5L32,8.3h6.4v19.3H3.1V8.3h20.5l1.7-2.4h-23c-0.9,0-1.6,0.7-1.6,1.6
			v23.3c0,0.9,0.7,1.6,1.6,1.6h36.9c0.9,0,1.6-0.7,1.6-1.6V7.5C40.8,6.6,40.1,5.9,39.2,5.9z"/>
	</g>
</g>
</svg>
