<?xml version="1.0" encoding="utf-8"?>
<!-- Generator: Adobe Illustrator 21.1.0, SVG Export Plug-In . SVG Version: 6.00 Build 0)  -->
<svg version="1.1" id="mouse_1_" opacity="0.2" xmlns="http://www.w3.org/2000/svg" xmlns:xlink="http://www.w3.org/1999/xlink"
	 x="0px" y="0px" width="47px" height="32px" viewBox="0 0 47 32" style="enable-background:new 0 0 47 32;" xml:space="preserve">
<g id="mouse">
	<g>
		<path style="fill-rule:evenodd;clip-rule:evenodd;fill:#FFFFFF;" d="M31.3,0H11.7C3.7,0,0,8.1,0,15.6C0,23.7,4,32,11.7,32h19.6
			C40,32,47,24.8,47,16C47,7.2,40,0,31.3,0z M19,29h-7.3C6,29,3,22.1,3,15.6C3,9.3,5.7,3,11.7,3h7.4C23.2,14,20.1,25.6,19,29z
			 M31.3,29h-9.2c0.8-2.7,2-7.8,2-13.7c0-3.8-0.5-8-1.9-12.2h9.1C38.3,3,44,8.8,44,16C44,23.2,38.3,29,31.3,29z M17.1,14.3H6.4
			c-0.8,0-1.5,0.7-1.5,1.5s0.7,1.5,1.5,1.5h10.7c0.8,0,1.5-0.7,1.5-1.5S17.9,14.3,17.1,14.3z"/>
	</g>
</g>
</svg>
