<?xml version="1.0" encoding="utf-8"?>
<!-- Generator: Adobe Illustrator 21.1.0, SVG Export Plug-In . SVG Version: 6.00 Build 0)  -->
<svg version="1.1" id="rocket_1_" xmlns="http://www.w3.org/2000/svg" xmlns:xlink="http://www.w3.org/1999/xlink" x="0px" y="0px"
	 width="34px" height="40px" viewBox="0 0 34 40" style="enable-background:new 0 0 34 40;" xml:space="preserve">
<g id="rocket">
	<g>
		<path style="fill-rule:evenodd;clip-rule:evenodd;fill:#FFFFFF;" d="M33,1.5c0.2-0.3,0.3-0.5,0.2-0.6c0,0,0,0-0.1,0
			c0,0,0-0.3,0.1-0.5c0.1-0.3-0.1-0.4-0.4-0.3c-0.3,0.1-0.6,0.1-0.6,0.1l-0.1-0.1C32,0,31.8,0.2,31.6,0.4c0,0,0,0.1-0.1,0.1
			c0,0-0.8,0.1-1.7,0.3c-1.6,0.3-4.1,1-6.8,2.7c-4.4,2.7-7.2,6.4-8.5,8.4c-0.5,0.8-1.6,1.3-2.5,1.3C4.6,13,1.5,18.1,0.3,20.8
			c-0.4,0.8,0.2,1.5,1.1,1.5c16.3-0.3,17.8,9.7,17.7,13.7c0,0.9,0.6,1.4,1.4,0.9c5.9-3.5,5.5-10.2,5-13.2c-0.2-0.9,0.1-2.1,0.7-2.8
			c2.4-2.8,3.9-5.5,5-8c0.3-0.8,0.8-2.2,1-3c0.1-0.4,0.2-0.9,0.3-1.5c0-0.1,0-0.2,0.1-0.3c0-0.1,0.1-0.3,0.1-0.5
			C33,5.9,33.1,4.5,33,3.4c0-0.9-0.1-1.7-0.1-1.7C33,1.6,33,1.6,33,1.5z M24.8,15.8c-0.1,0.2-0.2,0.4-0.4,0.5
			c-1,1.1-2.7,1.4-4.1,0.6c-1.6-0.9-2.1-2.8-1.2-4.3c0.1-0.2,0.2-0.4,0.4-0.5c1-1.1,2.7-1.4,4.1-0.6C25.1,12.3,25.7,14.3,24.8,15.8z
			 M14.6,30.6c-3.1,1.9-4.7,4.9-5.5,6.7c-0.4,0.8,0.2,1.3,1,0.8c2.9-1.7,4.6-4.9,5.4-6.8C15.8,30.6,15.4,30.1,14.6,30.6z M11.1,28
			c-4.7,2.8-7,7.5-7.9,10c-0.3,0.9,0.2,1.3,1,0.9c4.5-2.4,6.9-7.5,7.8-10.1C12.4,27.9,11.9,27.5,11.1,28z M8.6,26.1
			c0.4-0.8-0.1-1.3-0.9-0.8c-3.1,1.9-4.7,4.9-5.5,6.7c-0.4,0.8,0.2,1.3,1,0.8C6.1,31.2,7.8,28,8.6,26.1z"/>
	</g>
</g>
</svg>
