<?xml version="1.0" encoding="utf-8"?>
<!-- Generator: Adobe Illustrator 21.1.0, SVG Export Plug-In . SVG Version: 6.00 Build 0)  -->
<svg version="1.1" id="Forma_1_1_" xmlns="http://www.w3.org/2000/svg" xmlns:xlink="http://www.w3.org/1999/xlink" x="0px" y="0px"
	 width="37px" height="37px" viewBox="0 0 37 37" style="enable-background:new 0 0 37 37;" xml:space="preserve">
<g id="Forma_1">
	<g>
		<path style="fill-rule:evenodd;clip-rule:evenodd;fill:#565656;" d="M18.5,0C8.3,0,0,8.3,0,18.5S8.3,37,18.5,37
			C28.7,37,37,28.7,37,18.5S28.7,0,18.5,0z M26,15.2c0,0.2,0,0.3,0,0.5C26,20.4,22.4,26,15.7,26c-2.1,0-4-0.6-5.6-1.6
			c0.3,0,0.6,0.1,0.9,0.1c1.7,0,3.3-0.6,4.5-1.6c-1.6,0-2.9-1.1-3.4-2.5c0.2,0,0.5,0.1,0.7,0.1c0.3,0,0.7,0,1-0.1
			c-1.7-0.3-2.9-1.8-2.9-3.6c0,0,0,0,0,0c0.5,0.3,1.1,0.4,1.6,0.5c-1-0.7-1.6-1.8-1.6-3c0-0.7,0.2-1.3,0.5-1.8
			c1.8,2.2,4.5,3.7,7.5,3.8c-0.1-0.3-0.1-0.5-0.1-0.8c0-2,1.6-3.6,3.6-3.6c1,0,2,0.4,2.7,1.2c0.8-0.2,1.6-0.5,2.3-0.9
			c-0.3,0.9-0.8,1.6-1.6,2c0.7-0.1,1.4-0.3,2.1-0.6C27.4,14,26.7,14.6,26,15.2z"/>
	</g>
</g>
</svg>
